<svg width="42" height="39" viewBox="0 0 42 39" fill="none" xmlns="http://www.w3.org/2000/svg">
<path d="M18.6709 33.0649C18.0589 32.2689 17.4585 30.7567 17.216 29.4744C20.3682 29.4744 23.6813 29.5897 26.1877 30.2438C27.4423 30.5711 28.0253 32.1644 29.0975 33.4257C27.7697 34.1174 21.2111 34.8336 18.6709 33.0649Z" fill="#EEF0F2"/>
<path d="M25.1351 19.3241C22.7503 19.8468 20.3458 20.2253 17.9314 20.5098C15.2028 20.8313 12.4652 21.0683 9.61481 21.1859C7.09208 9.89562 17.0008 -0.0163881 24.8592 0.79676C22.0889 6.9777 21.5662 13.1239 25.1351 19.3241Z" fill="#EEF0F2"/>
<path d="M36.5088 26.9119C35.415 26.0818 34.4717 25.169 33.5187 24.0781C34.8297 24.1092 36.1504 24.3183 37.853 24.5878C37.3885 25.46 37.0238 26.1445 36.5088 26.9119Z" fill="#EEF0F2"/>
<path d="M18.9417 33.6411C18.804 34.8531 18.771 36.0947 18.477 37.2627C18.3597 37.7285 17.6659 38.032 17.2345 38.4094C17.1111 37.8998 16.9514 37.3964 16.8725 36.8793C16.7474 36.0589 16.7844 35.1955 16.5642 34.4094C15.3965 30.2413 12.6159 29.7769 8.98883 32.4638C6.51652 34.2953 4.05573 36.146 1.53771 37.9047C1.17513 38.1579 0.519834 37.9423 0 37.9437C0.278309 37.4406 0.476019 36.8545 0.849272 36.4493C2.25408 34.9241 3.95272 33.632 5.08276 31.915C6.00963 30.5067 6.28556 28.6192 6.98969 26.5296C5.33642 26.447 4.31777 26.404 3.30004 26.3434C1.45297 26.2335 0.494611 25.4199 1.42418 23.3952C1.96304 22.2215 2.35631 21.5395 2.76627 20.7967C2.82881 20.6834 2.40677 20.0558 2.47065 19.9377C2.80839 19.9684 3.85763 20.1676 4.16801 20.1942C5.8006 20.3341 6.87473 20.7723 8.53263 20.9636C11.5314 20.7621 14.8375 20.0148 17.5661 19.6933C19.9805 19.4089 22.385 19.0304 24.7939 18.6934C26.3569 18.7844 28.0837 19.3652 29.4457 18.8554C31.6754 18.0207 33.7709 16.6325 35.7271 15.182C37.2583 14.0466 37.6086 12.3126 37.026 10.2703C36.0413 6.81792 37.5779 4.64891 39.9219 5.02237C39.5912 7.78589 39.3398 10.514 38.8993 13.2075C38.7571 14.0771 38.223 14.9447 37.6839 15.6572C36.6367 17.0416 35.2953 18.2061 34.4107 19.6857C34.0202 20.339 34.344 21.5626 34.5357 22.4825C34.6825 23.1871 35.131 23.8213 35.4797 24.8608C36.4574 26.1475 37.4007 27.0604 38.344 27.9732C39.4896 30.4421 40.7014 32.8808 41.7263 35.4045C41.9375 35.9248 41.4517 36.7616 41.019 37.5027C39.2958 33.774 37.3378 30.7666 32.8925 31.5113C33.0623 36.1147 29.634 39.4859 26.3758 38.0768C27.3719 36.9673 28.3637 35.8626 29.2465 34.472C28.0625 33.1228 27.1293 31.4486 25.8827 31.1249C23.3921 30.4781 20.6258 30.6304 17.4585 30.3711C18.0529 31.8054 18.5492 32.6938 18.9417 33.6411Z" fill="#020202"/>
</svg>
