<svg width="42" height="35" viewBox="0 0 42 35" fill="none" xmlns="http://www.w3.org/2000/svg">
<path d="M18.6709 30.5523C18.0589 29.7997 17.4585 28.37 17.216 27.1576C20.3682 27.1576 23.6813 27.2667 26.1877 27.8851C27.4423 28.1946 28.0253 29.7009 29.0975 30.8934C27.7697 31.5474 21.2111 32.2245 18.6709 30.5523Z" fill="#F6AE2D"/>
<path d="M25.1351 17.5609C22.7503 18.0552 20.3458 18.413 17.9314 18.682C15.2028 18.9859 12.4652 19.21 9.61481 19.3212C7.09208 8.64677 17.0008 -0.724585 24.8592 0.0442095C22.0889 5.88801 21.5662 11.699 25.1351 17.5609Z" fill="#F6AE2D"/>
<path d="M36.5088 24.7349C35.415 23.9502 34.4717 23.0871 33.5187 22.0558C34.8297 22.0851 36.1504 22.2828 37.853 22.5377C37.3885 23.3623 37.0238 24.0095 36.5088 24.7349Z" fill="#F6AE2D"/>
<path d="M18.9417 30.4918C18.804 31.6377 18.771 32.8115 18.477 33.9158C18.3597 34.3563 17.6659 34.6432 17.2345 35C17.1111 34.5182 16.9514 34.0423 16.8725 33.5533C16.7474 32.7777 16.7844 31.9614 16.5642 31.2182C15.3965 27.2774 12.6159 26.8384 8.98883 29.3787C6.51652 31.1103 4.05573 32.8601 1.53771 34.5228C1.17513 34.7623 0.519834 34.5584 0 34.5597C0.278309 34.0841 0.476019 33.5299 0.849272 33.1468C2.25408 31.7048 3.95272 30.4832 5.08276 28.8599C6.00963 27.5284 6.28556 25.7438 6.98969 23.7682C5.33642 23.6901 4.31777 23.6495 3.30004 23.5922C1.45297 23.4882 0.494611 22.719 1.42418 20.8048C1.96304 19.6951 2.35631 19.0503 2.76627 18.348C2.82881 18.2409 2.40677 17.6475 2.47065 17.5358C2.80839 17.5649 3.85763 17.7532 4.16801 17.7783C5.8006 17.9106 6.87473 18.325 8.53263 18.5058C11.5314 18.3153 14.8375 17.6087 17.5661 17.3048C19.9805 17.0359 22.385 16.678 24.7939 16.3594C26.3569 16.4454 28.0837 16.9946 29.4457 16.5126C31.6754 15.7234 33.7709 14.4109 35.7271 13.0396C37.2583 11.9661 37.6086 10.3267 37.026 8.39573C36.0413 5.1317 37.5779 3.08099 39.9219 3.43408C39.5912 6.04687 39.3398 8.62618 38.8993 11.1728C38.7571 11.995 38.223 12.8152 37.6839 13.4889C36.6367 14.7977 35.2954 15.8987 34.4107 17.2976C34.0202 17.9152 34.344 19.0722 34.5357 19.9419C34.6825 20.608 35.131 21.2076 35.4797 22.1904C36.4574 23.407 37.4007 24.27 38.344 25.133C39.4896 27.4672 40.7014 29.773 41.7263 32.159C41.9375 32.6509 41.4517 33.4421 41.019 34.1428C39.2958 30.6175 37.3378 27.7741 32.8925 28.4781C33.0623 32.8305 29.634 36.0178 26.3758 34.6855C27.3719 33.6366 28.3637 32.5921 29.2465 31.2774C28.0625 30.0018 27.1293 28.4189 25.8827 28.1128C23.3921 27.5013 20.6258 27.6453 17.4585 27.4001C18.0529 28.7562 18.5492 29.5962 18.9417 30.4918Z" fill="#020202"/>
</svg>
